<svg version="1.1" id="Layer_1" xmlns="http://www.w3.org/2000/svg" xmlns:xlink="http://www.w3.org/1999/xlink" x="0px" y="0px"
	 width="100%" viewBox="0 0 500 500" enable-background="new 0 0 500 500" xml:space="preserve">
<path fill="#FFFFFF" opacity="1.000000" stroke="none" 
	d="
M501.000000,187.000000 
	C501.000000,291.999969 501.000000,396.499969 501.000000,500.999939 
	C334.333405,500.999969 167.666794,500.999969 1.000146,501.000000 
	C1.000097,334.333435 1.000097,167.666870 1.000049,1.000235 
	C167.666519,1.000157 334.333038,1.000157 500.999786,1.000078 
	C501.000000,62.833332 501.000000,124.666664 501.000000,187.000000 
M207.984375,466.027710 
	C209.629166,466.171967 211.279266,466.271942 212.917892,466.467773 
	C222.595139,467.624329 232.260269,469.660217 241.947464,469.766724 
	C255.343155,469.914032 268.893890,469.597626 282.130127,467.725464 
	C308.282379,464.026398 333.023224,455.464294 356.305511,442.857056 
	C358.897552,441.453400 361.622955,440.295898 364.357391,439.891449 
	C364.399811,459.841675 377.896301,475.837830 396.299774,477.749908 
	C415.671021,479.762543 432.554657,467.648041 436.338989,448.769897 
	C440.133728,429.839935 428.566223,410.693573 407.985809,405.281952 
	C409.028229,403.416229 410.070618,401.550507 411.996185,399.425507 
	C429.144501,399.393066 446.292786,399.360504 463.441101,399.328339 
	C465.106079,399.325195 466.771790,399.355286 468.435944,399.317017 
	C474.065735,399.187653 477.646545,396.190308 477.614929,391.663239 
	C477.582092,386.964478 474.155243,383.954865 468.510590,383.914520 
	C454.361115,383.813385 440.211060,383.797852 426.125061,383.075073 
	C426.847443,381.785645 427.448059,380.407745 428.310699,379.220245 
	C439.284729,364.113464 447.856049,347.713928 454.756561,330.400482 
	C462.022888,312.169159 466.370422,293.202850 468.734924,273.783051 
	C469.125214,270.577515 468.032166,267.191345 467.851746,263.194275 
	C473.591583,252.690811 475.649933,241.407089 475.616455,229.506973 
	C475.493652,185.841217 475.574799,142.174896 475.561523,98.508781 
	C475.558716,89.293518 473.216980,86.995880 464.044525,86.967659 
	C440.716217,86.895874 417.387970,86.811501 393.942871,86.078857 
	C393.590729,85.527046 393.343872,84.855141 392.871185,84.440834 
	C377.223846,70.725365 359.594604,60.126122 340.742340,51.485874 
	C339.620941,50.971924 338.161499,51.195595 336.289612,50.744839 
	C319.877411,32.278568 299.506470,22.665125 274.701233,25.396532 
	C265.315765,26.430004 256.267761,30.528280 246.571930,32.566612 
	C245.276978,32.388523 243.949112,31.929205 242.692215,32.076286 
	C231.367599,33.401474 219.919266,34.147530 208.765396,36.363167 
	C176.570953,42.758366 147.143005,55.789654 120.682892,75.262711 
	C116.102280,78.633759 112.172554,82.889229 107.058044,86.883942 
	C104.412766,86.883942 101.767494,86.883942 98.789108,86.883942 
	C96.801720,76.041016 94.955544,65.402092 92.885162,54.806984 
	C89.861061,39.331284 77.926987,27.153625 62.296021,25.165520 
	C52.285103,23.892227 42.031578,24.448738 31.885193,24.347860 
	C26.027401,24.289619 22.332514,27.455673 22.258467,32.188042 
	C22.183514,36.978294 25.766092,39.979179 31.775492,40.016998 
	C39.937801,40.068367 48.102776,39.919098 56.262703,40.068710 
	C66.302704,40.252785 74.454552,46.697796 77.106598,56.395767 
	C77.762772,58.795265 78.159950,61.271191 78.582275,63.728127 
	C81.116951,78.473846 83.624222,93.224274 85.506325,108.248573 
	C84.653336,109.039917 83.693474,109.743729 82.963181,110.635544 
	C68.866867,127.849777 57.439735,146.678482 48.911930,167.240723 
	C38.379642,192.636185 32.258923,219.100403 32.251385,246.569305 
	C32.247356,261.235474 33.869129,276.017822 36.089615,290.544067 
	C40.338028,318.336823 51.126888,343.841064 65.882904,367.653748 
	C77.874962,387.006073 92.527939,404.247620 110.283661,418.453705 
	C120.714951,426.799591 132.411804,433.563751 143.769318,441.904358 
	C144.953125,447.048279 145.310547,452.570190 147.461121,457.271912 
	C157.804764,479.886047 188.508179,485.804535 207.984375,466.027710 
z"/>
<path fill="#63639A" opacity="1.000000" stroke="none" 
	d="
M426.061218,383.747986 
	C440.211060,383.797852 454.361115,383.813385 468.510590,383.914520 
	C474.155243,383.954865 477.582092,386.964478 477.614929,391.663239 
	C477.646545,396.190308 474.065735,399.187653 468.435944,399.317017 
	C466.771790,399.355286 465.106079,399.325195 463.441101,399.328339 
	C446.292786,399.360504 429.144501,399.393066 411.097961,399.407349 
	C408.202545,399.349396 406.205383,399.274994 404.208191,399.274841 
	C330.917145,399.268890 257.626068,399.271759 184.335022,399.268433 
	C167.678009,399.267670 151.001617,399.722961 134.371918,399.043762 
	C125.672981,398.688477 116.649895,397.492065 108.479172,394.647583 
	C85.125275,386.517426 77.221565,358.602081 92.420792,339.436890 
	C99.534126,330.467468 109.500282,325.773590 120.413879,323.201721 
	C123.685135,322.430847 124.398163,321.083435 123.830566,318.053833 
	C121.657379,306.454193 119.595970,294.833344 117.538612,283.212341 
	C109.999527,240.627731 102.514618,198.033493 94.932610,155.456558 
	C92.110573,139.609406 89.077515,123.799828 86.140678,107.973122 
	C83.624222,93.224274 81.116951,78.473846 78.582275,63.728127 
	C78.159950,61.271191 77.762772,58.795265 77.106598,56.395767 
	C74.454552,46.697796 66.302704,40.252785 56.262703,40.068710 
	C48.102776,39.919098 39.937801,40.068367 31.775492,40.016998 
	C25.766092,39.979179 22.183514,36.978294 22.258467,32.188042 
	C22.332514,27.455673 26.027401,24.289619 31.885193,24.347860 
	C42.031578,24.448738 52.285103,23.892227 62.296021,25.165520 
	C77.926987,27.153625 89.861061,39.331284 92.885162,54.806984 
	C94.955544,65.402092 96.801720,76.041016 98.789108,86.883942 
	C101.767494,86.883942 104.412766,86.883942 107.965088,86.901413 
	C142.769669,86.918884 176.667221,86.918884 209.448669,86.918884 
	C213.042755,77.748375 215.808228,69.037857 219.788956,60.923508 
	C225.737061,48.798828 235.869995,40.395847 247.065933,33.229546 
	C256.267761,30.528280 265.315765,26.430004 274.701233,25.396532 
	C299.506470,22.665125 319.877411,32.278568 336.643036,51.249969 
	C344.909882,62.120003 349.845947,73.787346 351.800568,86.732170 
	C366.170380,86.732170 380.115051,86.732170 394.059692,86.732170 
	C417.387970,86.811501 440.716217,86.895874 464.044525,86.967659 
	C473.216980,86.995880 475.558716,89.293518 475.561523,98.508781 
	C475.574799,142.174896 475.493652,185.841217 475.616455,229.506973 
	C475.649933,241.407089 473.591583,252.690811 467.464050,263.709167 
	C457.919189,278.166718 445.189941,286.864258 428.775085,289.890137 
	C418.637024,291.759033 408.434052,293.280640 398.251221,294.901459 
	C355.040405,301.779480 311.826904,308.641083 268.612946,315.499390 
	C225.397308,322.357941 182.183762,329.229858 138.960403,336.039581 
	C128.766022,337.645691 118.492058,338.692688 109.675415,344.982544 
	C102.541611,350.071869 99.603859,356.792206 100.886650,365.308960 
	C102.048622,373.023621 106.824455,378.284607 114.110596,380.027039 
	C122.442421,382.019531 131.092178,383.720520 139.608688,383.743744 
	C233.763214,384.000305 327.918701,383.906616 422.073944,383.900055 
	C423.403046,383.899963 424.732117,383.800873 426.061218,383.747986 
M307.617065,143.891373 
	C311.757904,140.631470 315.898773,137.371552 320.644257,133.803329 
	C348.207703,106.990997 338.000397,58.328457 301.825745,44.087479 
	C281.171143,35.956318 256.006531,41.026020 242.326553,56.256172 
	C238.513992,62.033253 234.701416,67.810333 230.336838,74.110626 
	C220.752106,93.708183 226.339264,119.617645 243.707367,136.114151 
	C260.445892,152.012680 286.664581,155.274109 307.617065,143.891373 
M130.057968,102.892410 
	C120.781769,102.892410 111.505569,102.892410 101.514900,102.892410 
	C114.517845,175.592285 127.409111,247.667770 140.394989,320.272186 
	C150.214722,318.483673 159.162384,316.854004 168.969772,315.250549 
	C196.216843,311.053528 223.476257,306.934631 250.707733,302.638672 
	C281.038696,297.853790 311.354370,292.969788 341.657440,288.011139 
	C363.759247,284.394501 385.829834,280.587067 408.779480,277.018066 
	C411.572296,276.686798 414.449493,276.675018 417.141846,275.963501 
	C424.793549,273.941437 433.122040,272.959534 439.817780,269.160187 
	C453.393005,261.457123 459.764557,248.624725 459.901276,233.020767 
	C460.072021,213.534210 459.943451,194.045044 459.943634,174.557007 
	C459.943817,152.403946 459.934235,130.250854 459.955536,108.097824 
	C459.958069,105.455414 460.042938,102.975494 456.262939,103.042557 
	C447.444427,103.199020 438.623993,103.250618 428.904755,103.197906 
	C405.427490,103.171494 381.949036,103.262955 358.473999,103.020943 
	C353.680634,102.971519 351.640778,104.181969 350.477966,109.228851 
	C339.048981,158.833099 283.167084,181.175446 241.308472,152.974655 
	C225.057053,142.025818 215.382736,126.562073 211.457275,107.445953 
	C210.971283,105.079262 210.754196,103.027115 207.388855,103.040451 
	C181.917526,103.141426 156.445587,103.093338 130.057968,102.892410 
z"/>
<path fill="#E0E0EE" opacity="1.000000" stroke="none" 
	d="
M85.823502,108.110847 
	C89.077515,123.799828 92.110573,139.609406 94.932610,155.456558 
	C102.514618,198.033493 109.999527,240.627731 117.538612,283.212341 
	C119.595970,294.833344 121.657379,306.454193 123.830566,318.053833 
	C124.398163,321.083435 123.685135,322.430847 120.413879,323.201721 
	C109.500282,325.773590 99.534126,330.467468 92.420792,339.436890 
	C77.221565,358.602081 85.125275,386.517426 108.479172,394.647583 
	C116.649895,397.492065 125.672981,398.688477 134.371918,399.043762 
	C151.001617,399.722961 167.678009,399.267670 184.335022,399.268433 
	C257.626068,399.271759 330.917145,399.268890 404.208191,399.274841 
	C406.205383,399.274994 408.202545,399.349396 410.656372,399.536987 
	C410.070618,401.550507 409.028229,403.416229 407.581085,405.677979 
	C398.251740,404.105194 389.954437,405.944427 382.268036,410.551819 
	C371.532745,416.986725 365.998291,426.828461 364.286499,439.024261 
	C361.622955,440.295898 358.897552,441.453400 356.305511,442.857056 
	C333.023224,455.464294 308.282379,464.026398 282.130127,467.725464 
	C268.893890,469.597626 255.343155,469.914032 241.947464,469.766724 
	C232.260269,469.660217 222.595139,467.624329 212.917892,466.467773 
	C211.279266,466.271942 209.629166,466.171967 207.679932,465.723694 
	C218.698914,451.953125 219.411270,434.292999 209.197418,420.252502 
	C199.321838,406.677063 181.662369,401.552795 166.014771,408.271606 
	C151.787125,414.380829 144.865570,425.886017 143.539413,441.039337 
	C132.411804,433.563751 120.714951,426.799591 110.283661,418.453705 
	C92.527939,404.247620 77.874962,387.006073 65.882904,367.653748 
	C51.126888,343.841064 40.338028,318.336823 36.089615,290.544067 
	C33.869129,276.017822 32.247356,261.235474 32.251385,246.569305 
	C32.258923,219.100403 38.379642,192.636185 48.911930,167.240723 
	C57.439735,146.678482 68.866867,127.849777 82.963181,110.635544 
	C83.693474,109.743729 84.653336,109.039917 85.823502,108.110847 
z"/>
<path fill="#E0E0EF" opacity="1.000000" stroke="none" 
	d="
M426.093140,383.411530 
	C424.732117,383.800873 423.403046,383.899963 422.073944,383.900055 
	C327.918701,383.906616 233.763214,384.000305 139.608688,383.743744 
	C131.092178,383.720520 122.442421,382.019531 114.110596,380.027039 
	C106.824455,378.284607 102.048622,373.023621 100.886650,365.308960 
	C99.603859,356.792206 102.541611,350.071869 109.675415,344.982544 
	C118.492058,338.692688 128.766022,337.645691 138.960403,336.039581 
	C182.183762,329.229858 225.397308,322.357941 268.612946,315.499390 
	C311.826904,308.641083 355.040405,301.779480 398.251221,294.901459 
	C408.434052,293.280640 418.637024,291.759033 428.775085,289.890137 
	C445.189941,286.864258 457.919189,278.166718 467.350494,264.056366 
	C468.032166,267.191345 469.125214,270.577515 468.734924,273.783051 
	C466.370422,293.202850 462.022888,312.169159 454.756561,330.400482 
	C447.856049,347.713928 439.284729,364.113464 428.310699,379.220245 
	C427.448059,380.407745 426.847443,381.785645 426.093140,383.411530 
z"/>
<path fill="#E1E1EF" opacity="1.000000" stroke="none" 
	d="
M246.818939,32.898079 
	C235.869995,40.395847 225.737061,48.798828 219.788956,60.923508 
	C215.808228,69.037857 213.042755,77.748375 209.448669,86.918884 
	C176.667221,86.918884 142.769669,86.918884 108.407150,86.827538 
	C112.172554,82.889229 116.102280,78.633759 120.682892,75.262711 
	C147.143005,55.789654 176.570953,42.758366 208.765396,36.363167 
	C219.919266,34.147530 231.367599,33.401474 242.692215,32.076286 
	C243.949112,31.929205 245.276978,32.388523 246.818939,32.898079 
z"/>
<path fill="#64649B" opacity="1.000000" stroke="none" 
	d="
M364.321960,439.457855 
	C365.998291,426.828461 371.532745,416.986725 382.268036,410.551819 
	C389.954437,405.944427 398.251740,404.105194 407.589905,406.030609 
	C428.566223,410.693573 440.133728,429.839935 436.338989,448.769897 
	C432.554657,467.648041 415.671021,479.762543 396.299774,477.749908 
	C377.896301,475.837830 364.399811,459.841675 364.321960,439.457855 
M387.121643,426.896393 
	C379.661255,433.014374 378.023926,444.011078 383.311859,452.483856 
	C389.792938,462.868347 404.558044,465.323242 413.007660,457.100555 
	C423.747192,451.034821 425.090485,432.354462 410.878754,423.926392 
	C402.912262,419.201996 393.405029,420.393097 387.121643,426.896393 
z"/>
<path fill="#64649B" opacity="1.000000" stroke="none" 
	d="
M143.654358,441.471863 
	C144.865570,425.886017 151.787125,414.380829 166.014771,408.271606 
	C181.662369,401.552795 199.321838,406.677063 209.197418,420.252502 
	C219.411270,434.292999 218.698914,451.953125 207.254120,465.728699 
	C188.508179,485.804535 157.804764,479.886047 147.461121,457.271912 
	C145.310547,452.570190 144.953125,447.048279 143.654358,441.471863 
M166.085220,426.906982 
	C158.265396,434.422729 157.415649,446.544556 164.140396,454.649994 
	C171.033157,462.958008 182.314758,464.442841 191.870758,458.014893 
	C198.005219,453.520874 200.569885,447.515594 200.156250,439.905792 
	C199.732132,432.103119 195.046265,425.510864 186.821548,422.407349 
	C179.270950,419.558228 172.537430,421.044250 166.085220,426.906982 
z"/>
<path fill="#E0E0EE" opacity="1.000000" stroke="none" 
	d="
M394.001282,86.405518 
	C380.115051,86.732170 366.170380,86.732170 351.800568,86.732170 
	C349.845947,73.787346 344.909882,62.120003 336.927917,51.415558 
	C338.161499,51.195595 339.620941,50.971924 340.742340,51.485874 
	C359.594604,60.126122 377.223846,70.725365 392.871185,84.440834 
	C393.343872,84.855141 393.590729,85.527046 394.001282,86.405518 
z"/>
<path fill="#C9C1F5" opacity="1.000000" stroke="none" 
	d="
M407.914337,276.864685 
	C385.829834,280.587067 363.759247,284.394501 341.657440,288.011139 
	C311.354370,292.969788 281.038696,297.853790 250.707733,302.638672 
	C223.476257,306.934631 196.216843,311.053528 168.503342,314.801849 
	C164.820786,296.480072 161.561325,278.614624 158.400650,260.731750 
	C155.210159,242.680069 152.127075,224.609451 148.979706,206.550125 
	C145.435776,186.215546 141.863159,165.885986 138.321075,145.551086 
	C135.856262,131.400711 133.421844,117.245056 130.973846,103.091759 
	C156.445587,103.093338 181.917526,103.141426 207.388855,103.040451 
	C210.754196,103.027115 210.971283,105.079262 211.457275,107.445953 
	C215.382736,126.562073 225.057053,142.025818 241.308472,152.974655 
	C283.167084,181.175446 339.048981,158.833099 350.477966,109.228851 
	C351.640778,104.181969 353.680634,102.971519 358.473999,103.020943 
	C381.949036,103.262955 405.427490,103.171494 429.411011,103.704453 
	C429.943542,149.631973 429.974518,195.052933 429.993286,240.473907 
	C429.999023,254.349457 424.079132,265.021515 412.598572,272.739380 
	C410.886505,273.890350 409.468414,275.478699 407.914337,276.864685 
z"/>
<path fill="#E3DFF9" opacity="1.000000" stroke="none" 
	d="
M130.515900,102.992081 
	C133.421844,117.245056 135.856262,131.400711 138.321075,145.551086 
	C141.863159,165.885986 145.435776,186.215546 148.979706,206.550125 
	C152.127075,224.609451 155.210159,242.680069 158.400650,260.731750 
	C161.561325,278.614624 164.820786,296.480072 168.073486,314.788757 
	C159.162384,316.854004 150.214722,318.483673 140.394989,320.272186 
	C127.409111,247.667770 114.517845,175.592285 101.514900,102.892410 
	C111.505569,102.892410 120.781769,102.892410 130.515900,102.992081 
z"/>
<path fill="#9E9ECC" opacity="1.000000" stroke="none" 
	d="
M408.346924,276.941406 
	C409.468414,275.478699 410.886505,273.890350 412.598572,272.739380 
	C424.079132,265.021515 429.999023,254.349457 429.993286,240.473907 
	C429.974518,195.052933 429.943542,149.631973 429.860809,103.777847 
	C438.623993,103.250618 447.444427,103.199020 456.262939,103.042557 
	C460.042938,102.975494 459.958069,105.455414 459.955536,108.097824 
	C459.934235,130.250854 459.943817,152.403946 459.943634,174.557007 
	C459.943451,194.045044 460.072021,213.534210 459.901276,233.020767 
	C459.764557,248.624725 453.393005,261.457123 439.817780,269.160187 
	C433.122040,272.959534 424.793549,273.941437 417.141846,275.963501 
	C414.449493,276.675018 411.572296,276.686798 408.346924,276.941406 
z"/>
<path fill="#FC9495" opacity="1.000000" stroke="none" 
	d="
M230.888855,73.587418 
	C234.701416,67.810333 238.513992,62.033253 243.054932,56.119030 
	C249.001556,55.321831 254.296249,53.749138 259.423187,54.178699 
	C272.952026,55.312222 286.112762,58.167519 296.953613,67.339951 
	C291.490173,72.875496 286.174011,78.108788 280.542694,83.652344 
	C279.023743,82.254616 277.670929,81.086380 276.404633,79.830879 
	C271.672699,75.139229 267.035248,70.350220 262.233978,65.731171 
	C258.377716,62.021282 253.353104,61.954121 250.269012,65.338943 
	C247.204590,68.702156 247.598083,72.917427 251.420212,76.855179 
	C253.740372,79.245522 256.059631,81.647842 258.527222,83.881355 
	C262.306244,87.301918 266.212860,90.581467 270.579651,94.366669 
	C264.574005,100.165230 260.042145,104.811302 255.222885,109.137192 
	C245.473801,117.888229 247.280487,121.199371 250.450241,124.847084 
	C254.259613,129.230835 258.857666,127.761536 266.550842,120.053589 
	C270.081360,116.516281 273.763489,113.115456 277.097931,109.402214 
	C279.543121,106.679192 281.307465,106.452927 283.915100,109.293633 
	C288.417053,114.197968 293.265869,118.785820 298.006348,123.468758 
	C302.634216,128.040436 307.087341,128.572495 310.665314,125.053841 
	C314.355988,121.424416 313.945587,117.278595 309.103546,112.533173 
	C303.301331,106.846809 297.330688,101.332329 290.989594,95.323250 
	C297.310944,89.292595 302.695129,84.155983 308.374573,79.177109 
	C316.760040,88.630119 320.006927,99.901321 320.850647,111.772163 
	C321.375916,119.162109 320.362488,126.661407 320.039612,134.111633 
	C315.898773,137.371552 311.757904,140.631470 306.834778,143.947235 
	C298.474884,144.006989 290.734009,145.020996 283.349854,143.827682 
	C260.058990,140.063721 244.114212,126.657974 234.780441,104.980232 
	C230.390884,94.785416 231.074219,84.184875 230.888855,73.587418 
z"/>
<path fill="#F27E86" opacity="1.000000" stroke="none" 
	d="
M320.341919,133.957489 
	C320.362488,126.661407 321.375916,119.162109 320.850647,111.772163 
	C320.006927,99.901321 316.760040,88.630119 308.512177,78.869324 
	C309.261108,77.428947 310.248260,76.516418 311.059601,75.467873 
	C313.807953,71.915939 313.713104,68.360497 310.623749,65.107933 
	C307.607452,61.932281 304.091583,62.273060 300.609467,64.277214 
	C299.333130,65.011826 298.264343,66.106995 297.100891,67.037689 
	C286.112762,58.167519 272.952026,55.312222 259.423187,54.178699 
	C254.296249,53.749138 249.001556,55.321831 243.351715,55.968292 
	C256.006531,41.026020 281.171143,35.956318 301.825745,44.087479 
	C338.000397,58.328457 348.207703,106.990997 320.341919,133.957489 
z"/>
<path fill="#FAB1B2" opacity="1.000000" stroke="none" 
	d="
M230.612854,73.849022 
	C231.074219,84.184875 230.390884,94.785416 234.780441,104.980232 
	C244.114212,126.657974 260.058990,140.063721 283.349854,143.827682 
	C290.734009,145.020996 298.474884,144.006989 306.484436,143.990036 
	C286.664581,155.274109 260.445892,152.012680 243.707367,136.114151 
	C226.339264,119.617645 220.752106,93.708183 230.612854,73.849022 
z"/>
<path fill="#C7C0F4" opacity="1.000000" stroke="none" 
	d="
M412.390015,457.318542 
	C404.558044,465.323242 389.792938,462.868347 383.311859,452.483856 
	C378.023926,444.011078 379.661255,433.014374 387.793640,427.014801 
	C391.943604,428.531555 395.685699,429.493622 398.850159,431.409698 
	C408.492645,437.248199 411.768280,446.643707 412.390015,457.318542 
z"/>
<path fill="#9E9DCC" opacity="1.000000" stroke="none" 
	d="
M412.698853,457.209534 
	C411.768280,446.643707 408.492645,437.248199 398.850159,431.409698 
	C395.685699,429.493622 391.943604,428.531555 388.127747,426.912109 
	C393.405029,420.393097 402.912262,419.201996 410.878754,423.926392 
	C425.090485,432.354462 423.747192,451.034821 412.698853,457.209534 
z"/>
<path fill="#C7BFF3" opacity="1.000000" stroke="none" 
	d="
M191.229370,458.215424 
	C182.314758,464.442841 171.033157,462.958008 164.140396,454.649994 
	C157.415649,446.544556 158.265396,434.422729 166.809418,426.904358 
	C172.061691,429.124420 177.015625,430.763580 181.028549,433.692169 
	C189.196014,439.652710 191.479874,448.514587 191.229370,458.215424 
z"/>
<path fill="#9D9DCC" opacity="1.000000" stroke="none" 
	d="
M191.550064,458.115173 
	C191.479874,448.514587 189.196014,439.652710 181.028549,433.692169 
	C177.015625,430.763580 172.061691,429.124420 167.135239,426.788727 
	C172.537430,421.044250 179.270950,419.558228 186.821548,422.407349 
	C195.046265,425.510864 199.732132,432.103119 200.156250,439.905792 
	C200.569885,447.515594 198.005219,453.520874 191.550064,458.115173 
z"/>
<path fill="#646299" opacity="1.000000" stroke="none" 
	d="
M296.953613,67.339951 
	C298.264343,66.106995 299.333130,65.011826 300.609467,64.277214 
	C304.091583,62.273060 307.607452,61.932281 310.623749,65.107933 
	C313.713104,68.360497 313.807953,71.915939 311.059601,75.467873 
	C310.248260,76.516418 309.261108,77.428947 308.216919,78.711594 
	C302.695129,84.155983 297.310944,89.292595 290.989594,95.323250 
	C297.330688,101.332329 303.301331,106.846809 309.103546,112.533173 
	C313.945587,117.278595 314.355988,121.424416 310.665314,125.053841 
	C307.087341,128.572495 302.634216,128.040436 298.006348,123.468758 
	C293.265869,118.785820 288.417053,114.197968 283.915100,109.293633 
	C281.307465,106.452927 279.543121,106.679192 277.097931,109.402214 
	C273.763489,113.115456 270.081360,116.516281 266.550842,120.053589 
	C258.857666,127.761536 254.259613,129.230835 250.450241,124.847084 
	C247.280487,121.199371 245.473801,117.888229 255.222885,109.137192 
	C260.042145,104.811302 264.574005,100.165230 270.579651,94.366669 
	C266.212860,90.581467 262.306244,87.301918 258.527222,83.881355 
	C256.059631,81.647842 253.740372,79.245522 251.420212,76.855179 
	C247.598083,72.917427 247.204590,68.702156 250.269012,65.338943 
	C253.353104,61.954121 258.377716,62.021282 262.233978,65.731171 
	C267.035248,70.350220 271.672699,75.139229 276.404633,79.830879 
	C277.670929,81.086380 279.023743,82.254616 280.542694,83.652344 
	C286.174011,78.108788 291.490173,72.875496 296.953613,67.339951 
z"/>
</svg>